<?xml version="1.0" encoding="UTF-8" standalone="no"?>
<svg xmlns="http://www.w3.org/2000/svg" height="34px" width="130px" version="1.1" viewBox="0 0 130 34">
 <g fill-rule="evenodd">
  <path opacity="0.45" d="m48 6.0003c0-3.3139 2.682-6.0003 6-6.0003h22c3.314 0 6 2.6821 6 6.0003v22c0 3.314-2.682 6-6 6h-22c-3.314 0-6-2.682-6-6v-22zm4 1.0076c0-1.6612 1.343-3.0079 3.008-3.0079h19.984c1.661 0 3.008 1.3431 3.008 3.0079v19.984c0 1.661-1.343 3.008-3.008 3.008h-19.984c-1.661 0-3.008-1.343-3.008-3.008v-19.984zm5.632 5.0301l4.968 4.962-4.968 4.962 2.406 2.406 4.959-4.965 4.965 4.965 2.406-2.406-4.968-4.962 4.968-4.962-2.406-2.4058-4.962 4.9698-4.962-4.9698-2.406 2.4058z"/>
  <g transform="translate(96)">
   <path opacity="0.45" d="m0 6.0003c0-3.3139 2.6821-6.0003 6.0003-6.0003h22c3.314 0 6 2.6821 6 6.0003v22c0 3.314-2.682 6-6 6h-22c-3.3136 0-6-2.682-6-6v-22zm4 1.0076c0-1.6612 1.3431-3.0079 3.0079-3.0079h19.984c1.661 0 3.008 1.3431 3.008 3.0079v19.984c0 1.661-1.343 3.008-3.008 3.008h-19.984c-1.6613 0-3.008-1.343-3.008-3.008v-19.984z"/>
   <path d="m17.83 20.646h-1.662c-0.258-1.802-2.003-7.056-1.936-9.477 0.058-2.0546 0.781-4.5443 2.76-4.5343 2.034 0.0104 2.845 2.2516 2.773 4.5343-0.071 2.283-1.643 7.754-1.935 9.477zm1.634 4.351c0 0.649-0.247 1.208-0.742 1.677-0.487 0.461-1.058 0.691-1.716 0.691-0.665 0-1.246-0.23-1.741-0.691-0.486-0.469-0.729-1.028-0.729-1.677s0.243-1.208 0.729-1.677c0.495-0.478 1.076-0.717 1.741-0.717 0.658 0 1.229 0.239 1.716 0.717 0.495 0.469 0.742 1.028 0.742 1.677z"/>
  </g>
  <path d="m34 18.097v-12.097c0-3.3179-2.686-6-6-6h-22c-3.3179 0-6 2.6864-6 6.0003v22c0 3.318 2.6864 6 6.0003 6h12.249c-0.161-0.464-0.249-0.962-0.249-1.479v-1.556c-0.33 0.023-0.664 0.035-1 0.035-7.732 0-14-6.268-14-14s6.268-14 14-14c7.233 0 13.184 5.4847 13.923 12.522 1.228 0.586 2.284 1.477 3.077 2.575zm-1.447 7.042v-2.216c0-2.856-2.26-5.173-5.053-5.173s-5.053 2.317-5.053 5.173v2.216c-0.8 0-1.447 0.66-1.447 1.472v5.91c0 0.812 0.647 1.479 1.447 1.479h10.106c0.8 0 1.447-0.667 1.447-1.479v-5.91c0-0.812-0.647-1.472-1.447-1.472zm-8.087-2.216c0-1.714 1.358-3.104 3.034-3.104s3.034 1.39 3.034 3.104v2.216h-6.068v-2.216zm-1.466-5.923c0 3.314-2.686 6-6 6s-6-2.686-6-6 2.686-6 6-6 6 2.686 6 6z"/>
 </g>
</svg>
